<svg width="758" height="791" viewBox="0 0 758 791" fill="none" xmlns="http://www.w3.org/2000/svg">
<mask id="mask0_181_26" style="mask-type:luminance" maskUnits="userSpaceOnUse" x="-42" y="0" width="800" height="800">
<path d="M758 0H-42V800H758V0Z" fill="white"/>
</mask>
<g mask="url(#mask0_181_26)">
<g opacity="0.75">
<path d="M33.5005 365.551C-6.50082 564.675 226.374 801.297 388.654 760.951C534.982 724.562 606.025 654.629 664.121 552.623C722.206 450.637 671.048 184.903 540.044 126.758C361.274 47.5959 73.3616 167.769 33.5005 365.551Z" fill="#FADA04"/>
</g>
<g opacity="0.75">
<path d="M142.691 646.327C281.704 794.401 609.527 741.93 670.778 586.332C726.002 446.024 710.236 347.59 660.833 241.102C611.44 134.634 365.294 22.1892 241.947 95.186C73.7769 194.905 4.69079 499.146 142.691 646.327Z" stroke="#EC9D09" stroke-opacity="0.25" stroke-width="3.88" stroke-miterlimit="3"/>
</g>
<path d="M107.721 161.436C11.0776 281.594 74.821 743.72 238.823 776.084C386.718 805.271 533.628 708.695 603.569 585.941C673.495 463.199 669.514 244.684 548.281 133.405C427.062 22.147 213.267 30.5806 107.721 161.436Z" stroke="#EC9D09" stroke-opacity="0.25" stroke-width="3.88" stroke-linecap="round" stroke-linejoin="round"/>
</g>
</svg>
